<svg viewBox="0 0 2481 1200" version="1.1" xmlns="http://www.w3.org/2000/svg" xmlns:xlink="http://www.w3.org/1999/xlink" xml:space="preserve" xmlns:serif="http://www.serif.com/" style="fill-rule:evenodd;clip-rule:evenodd;stroke-linejoin:round;stroke-miterlimit:2;">
    <g transform="matrix(0.75,0,0,0.75,0,0)">
        <g transform="matrix(-4.26316,3.96401,3.96401,4.26316,874.653,1085.34)">
            <path d="M-27.737,-128.546L6.979,-128.546C6.979,-128.546 23.605,-48.098 77.359,-35.85C53.451,-30.67 2.928,-24.76 -18.867,-60.894C-28.166,-77.897 -29.394,-100.975 -27.737,-128.546" style="fill:rgb(0,182,237);fill-rule:nonzero;"/>
        </g>
        <g transform="matrix(5.82133,0,0,5.82133,379.602,996.498)">
            <path d="M0,38.978C-3.427,44.012 -8.527,47.701 -14.407,49.285C-43.41,57.099 -65.037,43.847 -65.037,43.847C-65.037,43.847 -30.03,9.522 -5.302,-15.192C0.654,-15.058 5.194,-16.43 8.509,-18.121C11.882,0.1 11.808,21.631 0,38.978" style="fill:rgb(0,182,237);fill-rule:nonzero;"/>
        </g>
        <g transform="matrix(5.82133,0,0,5.82133,784.799,488.444)">
            <path d="M0,40.829C-2.257,41.413 -5.018,41.913 -8.069,42.007C-12.61,26.273 -23.545,11.749 -35.685,-1.178C-24.528,3.727 -8.618,7.895 8.657,3.512C8.167,13.326 6.181,24.683 1.462,37.009L0,40.829Z" style="fill:rgb(0,182,237);fill-rule:nonzero;"/>
        </g>
        <g transform="matrix(5.82133,0,0,5.82133,1029.29,153.131)">
            <path d="M0,15.303C-2.353,10.702 -5.349,5.861 -9.03,0.686C-3.803,2.459 4.116,3.211 15.588,0L0,15.303Z" style="fill:rgb(0,182,237);fill-rule:nonzero;"/>
        </g>
        <g transform="matrix(-3.49077,4.65858,4.65858,3.49077,1152.09,427.396)">
            <path d="M9.363,-66.366C9.363,-66.366 24.907,-30.094 73.648,-16.213C55.457,-11.733 36.553,-2.17 9.363,-15.77C-4.234,-23.367 -12.237,-38.833 -18.47,-62.303C-0.807,-64.896 9.363,-66.366 9.363,-66.366" style="fill:rgb(0,182,237);fill-rule:nonzero;"/>
        </g>
        <g transform="matrix(5.82133,0,0,5.82133,925.371,1070.38)">
            <path d="M0,0.626C2.02,3.136 4.181,4.931 6.482,6.012C8.782,7.093 11.291,7.632 14.011,7.632C18.82,7.632 22.357,6.325 24.623,3.711C26.888,1.098 28.022,-2.997 28.022,-8.575C28.022,-13.871 26.819,-17.897 24.413,-20.651C22.01,-23.404 18.507,-24.781 13.906,-24.781C11.187,-24.781 8.66,-24.222 6.325,-23.108C3.989,-21.993 1.881,-20.215 0,-17.775L0,0.626ZM-3.451,-37.329L-1.464,-31.369C0.557,-33.319 3.031,-34.976 5.959,-36.335C8.888,-37.694 12.443,-38.374 16.624,-38.374C25.407,-38.374 32.115,-35.812 36.752,-30.689C41.386,-25.565 43.705,-18.194 43.705,-8.575C43.705,1.186 41.457,8.592 36.961,13.644C32.466,18.698 25.894,21.225 17.251,21.225C13.487,21.225 10.193,20.666 7.371,19.551C4.548,18.437 2.091,17.078 0,15.474L0,39L-15.475,39L-15.475,-37.329L-3.451,-37.329Z" style="fill:currentColor;fill-rule:nonzero;"/>
        </g>
        <g transform="matrix(5.82133,0,0,5.82133,1450.64,1052.11)">
            <path d="M0,-10.873C-0.14,-14.568 -1.359,-17.461 -3.659,-19.551C-5.959,-21.643 -9.097,-22.688 -13.069,-22.688C-20.597,-22.688 -24.989,-18.749 -26.244,-10.873L0,-10.873ZM-12.652,24.363C-22.271,24.363 -29.626,21.8 -34.714,16.677C-39.802,11.554 -42.346,4.149 -42.346,-5.54C-42.346,-15.161 -39.837,-22.513 -34.817,-27.603C-29.799,-32.691 -22.62,-35.236 -13.278,-35.236C-4.566,-35.236 2.196,-33.075 7.006,-28.753C11.815,-24.429 14.393,-18.331 14.744,-10.455C14.812,-8.642 14.812,-6.988 14.744,-5.488C14.673,-3.989 14.568,-2.682 14.429,-1.568L-26.454,-1.568C-25.547,7.286 -20.877,11.711 -12.443,11.711C-6.309,11.711 -2.509,9.411 -1.045,4.81L14.011,4.81C11.362,17.846 2.474,24.363 -12.652,24.363" style="fill:currentColor;fill-rule:nonzero;"/>
        </g>
        <g transform="matrix(5.82133,0,0,5.82133,1669.76,1070.38)">
            <path d="M0,0.626C2.02,3.136 4.181,4.931 6.482,6.012C8.782,7.093 11.291,7.632 14.011,7.632C18.82,7.632 22.357,6.325 24.623,3.711C26.888,1.098 28.022,-2.997 28.022,-8.575C28.022,-13.871 26.819,-17.897 24.413,-20.651C22.01,-23.404 18.507,-24.781 13.906,-24.781C11.187,-24.781 8.66,-24.222 6.325,-23.108C3.989,-21.993 1.881,-20.215 0,-17.775L0,0.626ZM-3.451,-37.329L-1.464,-31.369C0.557,-33.319 3.031,-34.976 5.959,-36.335C8.888,-37.694 12.443,-38.374 16.624,-38.374C25.408,-38.374 32.115,-35.812 36.752,-30.689C41.386,-25.565 43.705,-18.194 43.705,-8.575C43.705,1.186 41.457,8.592 36.961,13.644C32.466,18.698 25.894,21.225 17.251,21.225C13.487,21.225 10.193,20.666 7.371,19.551C4.548,18.437 2.091,17.078 0,15.474L0,39L-15.475,39L-15.475,-37.329L-3.451,-37.329Z" style="fill:currentColor;fill-rule:nonzero;"/>
        </g>
        <g transform="matrix(5.82133,0,0,5.82133,2069.65,892.032)">
            <path d="M0,28.963C0,32.241 0.695,34.593 2.091,36.021C3.484,37.451 5.751,38.164 8.888,38.164C10.281,38.164 11.606,38.13 12.861,38.06C14.115,37.991 15.23,37.887 16.207,37.747L16.207,51.13C15.788,51.198 15.161,51.286 14.324,51.391C13.489,51.495 12.564,51.582 11.554,51.652C10.542,51.722 9.531,51.773 8.521,51.81C7.51,51.843 6.588,51.861 5.751,51.861C-8.401,51.861 -15.475,45.519 -15.475,32.831L-15.475,4.496L-25.513,4.496L-25.513,-6.692L-15.475,-6.692L-15.475,-19.552L0,-22.898L0,-6.692L15.788,-6.692L15.788,4.496L0,4.496L0,28.963Z" style="fill:currentColor;fill-rule:nonzero;"/>
        </g>
        <g transform="matrix(5.82133,0,0,5.82133,2403.8,989.016)">
            <path d="M0,10.84L-13.174,10.84C-15.545,10.84 -17.409,11.433 -18.768,12.616C-20.127,13.803 -20.806,15.405 -20.806,17.426C-20.806,19.449 -20.075,21.033 -18.612,22.183C-17.148,23.335 -15.126,23.909 -12.547,23.909C-9.619,23.909 -7.041,23.161 -4.81,21.661C-2.58,20.163 -0.977,18.194 0,15.754L0,10.84ZM-36.491,18.263C-36.491,13.176 -34.871,9.202 -31.629,6.343C-28.388,3.486 -23.839,2.056 -17.984,2.056L0,2.056L0,-2.858C0,-8.853 -3.382,-11.849 -10.143,-11.849C-13.419,-11.849 -15.859,-11.31 -17.461,-10.229C-19.065,-9.148 -19.971,-7.527 -20.18,-5.367L-34.923,-5.367C-34.784,-11.64 -32.554,-16.38 -28.231,-19.588C-23.91,-22.793 -17.637,-24.361 -9.41,-24.293C-5.646,-24.293 -2.248,-23.856 0.785,-22.986C3.816,-22.113 6.43,-20.895 8.626,-19.326C10.822,-17.758 12.51,-15.875 13.698,-13.68C14.881,-11.484 15.475,-9.062 15.475,-6.413L15.475,34.155L3.242,34.155L0.941,27.464C-2.893,32.623 -8.714,35.201 -16.52,35.201C-22.655,35.201 -27.517,33.685 -31.107,30.654C-34.698,27.621 -36.491,23.49 -36.491,18.263" style="fill:currentColor;fill-rule:nonzero;"/>
        </g>
        <g transform="matrix(5.82133,0,0,5.82133,2539.53,1181.76)">
            <path d="M0,-56.462L12.548,-56.462L14.952,-49.457C19.064,-54.823 24.536,-57.507 31.368,-57.507C31.786,-57.507 32.362,-57.489 33.093,-57.455C33.825,-57.419 34.4,-57.333 34.819,-57.194L34.819,-42.66C34.259,-42.798 33.493,-42.903 32.518,-42.973C31.541,-43.042 30.704,-43.078 30.009,-43.078C25.338,-43.078 21.749,-41.735 19.24,-39.053C16.729,-36.368 15.475,-32.447 15.475,-27.29L15.475,1.045L0,1.045L0,-56.462Z" style="fill:currentColor;fill-rule:nonzero;"/>
        </g>
        <g transform="matrix(5.82133,0,0,5.82133,-53.3025,-2950.33)">
            <path d="M486.911,653.357L502.386,653.357L502.386,710.864L486.911,710.864L486.911,653.357ZM485.447,638.51C485.447,636 486.266,633.997 487.905,632.497C489.541,630.999 491.722,630.25 494.44,630.25C497.296,630.25 499.563,630.999 501.235,632.497C502.909,633.997 503.746,636 503.746,638.51C503.746,640.95 502.909,642.937 501.235,644.47C499.563,646.003 497.296,646.77 494.44,646.77C491.722,646.77 489.541,646.021 487.905,644.522C486.266,643.023 485.447,641.019 485.447,638.51" style="fill:currentColor;fill-rule:nonzero;"/>
        </g>
        <g transform="matrix(5.82133,0,0,5.82133,3212.1,953.506)">
            <path d="M0,23.004C0,28.859 -2.232,33.373 -6.692,36.545C-11.154,39.717 -17.498,41.301 -25.722,41.301C-29.695,41.301 -33.268,40.847 -36.439,39.942C-39.612,39.038 -42.278,37.712 -44.438,35.969C-46.599,34.227 -48.238,32.137 -49.352,29.696C-50.467,27.256 -50.956,24.538 -50.815,21.54L-36.596,21.54C-36.596,23.981 -35.586,25.897 -33.564,27.29C-31.542,28.686 -28.686,29.381 -24.989,29.381C-18.577,29.243 -15.37,27.361 -15.37,23.736C-15.37,22.063 -16.155,20.808 -17.723,19.971C-19.292,19.134 -22.027,18.577 -25.931,18.299C-29.277,18.021 -32.431,17.585 -35.393,16.992C-38.357,16.4 -40.954,15.46 -43.183,14.168C-45.415,12.88 -47.192,11.12 -48.515,8.888C-49.84,6.659 -50.502,3.731 -50.502,0.106C-50.502,-5.609 -48.358,-10.106 -44.071,-13.383C-39.785,-16.659 -33.738,-18.297 -25.931,-18.297C-18.124,-18.297 -12.06,-16.729 -7.738,-13.592C-3.417,-10.456 -1.082,-5.749 -0.732,0.524L-14.952,0.524C-15.579,-4.216 -19.17,-6.515 -25.722,-6.377C-28.58,-6.377 -30.828,-5.803 -32.466,-4.651C-34.105,-3.501 -34.923,-1.987 -34.923,-0.104C-34.923,1.919 -34.086,3.417 -32.414,4.392C-30.74,5.369 -27.745,6.066 -23.421,6.484C-20.284,6.763 -17.289,7.181 -14.429,7.738C-11.573,8.296 -9.081,9.168 -6.953,10.352C-4.828,11.538 -3.137,13.122 -1.883,15.109C-0.628,17.096 0,19.727 0,23.004" style="fill:currentColor;fill-rule:nonzero;"/>
        </g>
        <g transform="matrix(5.82133,0,0,5.82133,3293.19,1156.06)">
            <path d="M0,4.82L-0.177,1.985C-0.195,1.613 -0.195,1.152 -0.212,0.639L-0.265,0.639C-0.39,1.063 -0.55,1.63 -0.674,2.073L-1.541,4.749L-2.534,4.749L-3.402,2.002C-3.49,1.649 -3.633,1.063 -3.738,0.639L-3.792,0.639C-3.792,1.082 -3.809,1.542 -3.828,1.985L-4.005,4.82L-4.926,4.82L-4.572,0L-3.137,0L-2.304,2.357C-2.18,2.729 -2.108,3.083 -1.984,3.579L-1.966,3.579C-1.842,3.154 -1.737,2.729 -1.63,2.392L-0.798,0L0.584,0L0.957,4.82L0,4.82ZM-5.21,0L-5.21,0.797L-6.751,0.797L-6.751,4.82L-7.707,4.82L-7.707,0.797L-9.232,0.797L-9.232,0L-5.21,0Z" style="fill:currentColor;fill-rule:nonzero;"/>
        </g>
    </g>
</svg>
