<?xml version="1.0" encoding="UTF-8" standalone="no"?>
<!DOCTYPE svg PUBLIC "-//W3C//DTD SVG 1.1//EN" "http://www.w3.org/Graphics/SVG/1.1/DTD/svg11.dtd">
<svg width="100%" height="100%" viewBox="0 0 878 1028" version="1.1" xmlns="http://www.w3.org/2000/svg" xmlns:xlink="http://www.w3.org/1999/xlink" xml:space="preserve" xmlns:serif="http://www.serif.com/" style="fill-rule:evenodd;clip-rule:evenodd;stroke-linejoin:round;stroke-miterlimit:2;">
    <g transform="matrix(5.55556,0,0,5.55556,0,0)">
        <g>
            <path d="M158.943,0.59L0,0.59L0,79.821C-0.104,114.311 19.008,139.291 35.06,154.175C52.714,170.542 72.178,179.98 78.681,181.397L79.471,181.567L80.267,181.396C86.764,179.98 106.227,170.542 123.881,154.175C139.935,139.291 159.047,114.311 158.942,79.823C158.94,78.836 158.943,0.59 158.943,0.59Z" style="fill:white;fill-rule:nonzero;"/>
            <path d="M4.019,4.776C4.019,4.776 4.229,50.82 4.009,50.598L154.94,50.6L154.94,4.776L4.019,4.776ZM44.52,33.763L44.521,33.763C44.753,33.944 44.994,34.133 45.164,34.384C45.344,34.652 45.436,34.965 45.428,35.305C45.436,35.63 45.344,35.943 45.163,36.212C44.994,36.463 44.753,36.651 44.521,36.832C44.16,37.114 43.819,37.38 43.819,37.842L43.819,40.664L27.154,40.663L10.49,40.664L10.49,37.842C10.49,37.38 10.149,37.114 9.789,36.832C9.556,36.651 9.315,36.463 9.146,36.212C8.965,35.943 8.874,35.63 8.881,35.291C8.874,34.965 8.965,34.652 9.146,34.384C9.315,34.133 9.556,33.944 9.789,33.763C10.149,33.482 10.49,33.216 10.49,32.754L10.49,23.54C10.49,23.078 10.149,22.812 9.789,22.53C9.556,22.348 9.315,22.161 9.146,21.909C8.965,21.642 8.874,21.328 8.881,20.989C8.874,20.664 8.965,20.35 9.146,20.082C9.316,19.83 9.567,19.634 9.789,19.461C10.149,19.18 10.49,18.914 10.49,18.451L10.49,15.544L10.914,15.544C12.861,15.543 14.571,15.5 15.761,14.991C16.248,14.784 16.696,14.502 17.173,14.201C18.194,13.559 19.351,12.832 21.083,12.832C22.471,12.832 23.762,13.352 24.905,13.812C25.711,14.136 26.474,14.443 27.043,14.443L27.267,14.443C27.835,14.443 28.598,14.136 29.409,13.81C30.547,13.352 31.838,12.832 33.227,12.832C34.958,12.832 36.115,13.559 37.139,14.203C37.613,14.502 38.062,14.784 38.547,14.991C39.738,15.5 41.447,15.543 43.396,15.544L43.819,15.544L43.819,18.451C43.819,18.914 44.16,19.18 44.521,19.461C44.742,19.634 44.993,19.83 45.163,20.082C45.344,20.35 45.436,20.664 45.428,21.003C45.436,21.328 45.344,21.642 45.163,21.909C44.994,22.161 44.753,22.348 44.521,22.53C44.16,22.812 43.819,23.078 43.819,23.54L43.819,32.754C43.819,33.216 44.16,33.482 44.52,33.763ZM108.297,38.579C105.72,42.701 100.747,43.709 100.541,43.749C99.559,43.922 98.553,44.01 97.547,44.01L97.546,44.01C92.352,44.01 87.55,41.75 82.681,39.232C82.132,38.948 81.523,38.615 80.868,38.256C77.759,36.554 73.421,34.18 69.749,34.18C68.681,34.18 67.669,34.381 66.76,34.858L66.609,34.937L66.601,35.107C66.576,35.586 66.484,36.042 66.328,36.46C65.744,38.026 63.829,39.692 62.897,40.356C60.76,41.893 58.134,43.464 54.859,43.464C54.37,43.464 53.916,43.394 53.51,43.256C52.923,43.056 52.418,42.7 52.049,42.226C51.87,41.995 51.72,41.734 51.601,41.447C51.506,41.22 51.448,40.996 51.412,40.72L51.386,40.527L51.201,40.472C49.933,40.091 49.175,39.262 49.175,38.251C49.175,37.491 49.737,36.827 50.281,36.183C51.127,35.181 51.858,34.316 50.666,33.186C50.553,33.08 50.423,32.984 50.297,32.89C50.124,32.761 49.96,32.64 49.812,32.481C48.766,31.359 49.383,29.028 49.752,27.635L49.793,27.484C50.194,25.959 50.81,24.382 51.674,22.662C52.845,20.334 54.26,17.711 56.243,16.051C56.283,16.019 56.334,16.004 56.385,16.011C56.436,16.019 56.481,16.048 56.509,16.091C56.55,16.152 56.766,16.485 57.076,17.003L57.411,17.561L57.617,16.944C58.168,15.297 59.078,14.231 60.321,13.775C61.652,13.286 62.893,13.972 63.514,14.423L63.775,14.614L63.945,14.338C64.342,13.692 65.074,12.909 66.304,12.853C67.651,12.792 68.752,13.713 69.285,14.268L69.478,14.47L69.693,14.291C70.295,13.787 71.868,12.639 73.448,12.852C74.943,13.053 75.513,14.356 75.689,14.907L75.795,15.239L76.106,15.085C76.81,14.736 78.181,14.275 79.469,15.091C80.297,15.615 80.395,16.511 80.332,17.17L80.295,17.558L80.68,17.494C81.648,17.33 83.43,17.218 84.488,18.299C85.321,19.149 85.375,20.25 85.274,21.023L85.225,21.404L85.606,21.359C86.456,21.259 87.598,21.34 88.213,22.294C88.629,22.941 88.467,23.854 88.333,24.341L88.251,24.638L88.55,24.711C89.045,24.832 89.913,25.14 90.171,25.849C90.363,26.376 90.301,27.257 90.002,28.266L89.925,28.525L90.175,28.627C90.604,28.803 91.388,29.224 91.812,30.061C92.227,30.881 92.208,31.9 91.756,33.088L91.683,33.282L91.837,33.419C92.944,34.401 94.06,35.303 95.153,36.098C97.373,37.712 100.834,38.568 103.185,36.636C104.073,35.906 104.468,34.572 104.168,33.318C103.901,32.208 103.167,31.444 102.157,31.22C100.382,30.829 98.973,32.516 97.829,34.219C97.792,34.275 97.728,34.304 97.662,34.298C97.595,34.291 97.538,34.25 97.513,34.188C96.46,31.672 96.409,29.584 97.359,27.982C98.167,26.623 99.72,25.67 101.623,25.368L101.878,25.327L101.875,25.069C101.841,22.089 102.555,19.917 103.996,18.613C104.871,17.819 106.481,16.951 109.179,17.315C109.234,17.322 109.284,17.356 109.312,17.404C109.339,17.452 109.343,17.511 109.322,17.563C107.34,22.338 107.83,24.126 108.907,28.046C109.001,28.392 109.1,28.753 109.201,29.132C110.197,32.848 109.893,36.026 108.297,38.579ZM149.161,33.763C149.394,33.944 149.634,34.133 149.804,34.384C149.984,34.652 150.076,34.965 150.069,35.305C150.076,35.63 149.984,35.943 149.804,36.212C149.634,36.463 149.394,36.651 149.161,36.832C148.8,37.114 148.46,37.38 148.46,37.842L148.46,40.664L131.795,40.663L115.13,40.664L115.13,37.842C115.13,37.38 114.79,37.114 114.43,36.832C114.196,36.651 113.956,36.463 113.787,36.212C113.605,35.943 113.514,35.63 113.521,35.291C113.514,34.965 113.605,34.652 113.787,34.384C113.956,34.133 114.197,33.944 114.43,33.763C114.79,33.482 115.13,33.216 115.13,32.754L115.13,23.54C115.13,23.078 114.79,22.812 114.43,22.53C114.196,22.348 113.956,22.161 113.787,21.909C113.605,21.642 113.514,21.328 113.521,20.989C113.514,20.664 113.605,20.35 113.787,20.082C113.956,19.83 114.208,19.634 114.43,19.461C114.79,19.18 115.13,18.914 115.13,18.451L115.13,15.544L115.554,15.544C117.502,15.543 119.212,15.5 120.402,14.991C120.888,14.784 121.336,14.502 121.814,14.201C122.834,13.559 123.992,12.832 125.723,12.832C127.112,12.832 128.401,13.352 129.545,13.812C130.352,14.136 131.114,14.443 131.683,14.443L131.908,14.443C132.476,14.443 133.238,14.136 134.05,13.81C135.188,13.352 136.479,12.832 137.867,12.832C139.599,12.832 140.756,13.559 141.78,14.203C142.254,14.502 142.702,14.784 143.188,14.991C144.378,15.5 146.088,15.543 148.037,15.544L148.46,15.544L148.46,18.451C148.46,18.914 148.8,19.18 149.161,19.461C149.382,19.634 149.634,19.83 149.804,20.082C149.984,20.35 150.076,20.664 150.069,21.003C150.076,21.328 149.984,21.642 149.804,21.909C149.634,22.161 149.394,22.348 149.161,22.53C148.8,22.812 148.46,23.078 148.46,23.54L148.46,32.754C148.46,33.216 148.8,33.482 149.161,33.763Z" style="fill:rgb(153,0,0);fill-rule:nonzero;"/>
            <path d="M56.011,31.779C56.54,31.779 57.043,31.916 57.54,32.327C57.705,32.463 57.856,32.6 57.989,32.727C58.335,33.057 58.314,33.614 57.942,33.916C57.568,34.22 57.143,34.523 56.876,34.705C56.261,35.127 55.208,35.898 54.477,35.291C54.107,34.984 54.839,34.485 54.519,33.217C54.268,32.224 55.249,31.779 56.011,31.779Z" style="fill:rgb(1,31,91);fill-rule:nonzero;"/>
            <path d="M97.547,44.309C92.345,44.31 87.471,42.046 82.544,39.498C81.988,39.21 81.375,38.874 80.725,38.519C76.753,36.345 70.791,33.081 66.899,35.123C66.873,35.633 66.775,36.117 66.608,36.565C65.998,38.199 64.028,39.918 63.071,40.598C60.897,42.163 58.219,43.763 54.859,43.763C54.337,43.763 53.851,43.688 53.414,43.539C52.771,43.32 52.217,42.93 51.813,42.409C51.618,42.158 51.453,41.873 51.324,41.563C51.21,41.289 51.151,41.031 51.115,40.758C49.725,40.342 48.877,39.403 48.877,38.252C48.877,37.382 49.474,36.674 50.052,35.99C50.994,34.875 51.405,34.299 50.46,33.403C50.361,33.31 50.244,33.223 50.12,33.131C49.943,33.001 49.76,32.865 49.593,32.685C48.434,31.442 49.078,29.011 49.463,27.559L49.503,27.408C49.91,25.862 50.533,24.266 51.407,22.528C52.591,20.173 54.024,17.518 56.051,15.822C56.156,15.734 56.294,15.695 56.429,15.716C56.564,15.736 56.685,15.813 56.76,15.927C56.831,16.035 57.641,17.28 58.488,18.917C62.015,16.807 67.038,16.565 67.617,16.544C70.722,16.428 75.226,16.917 79.064,19.878C81.448,21.718 83.415,23.997 85.317,26.201C85.814,26.776 86.328,27.371 86.839,27.948C89.765,31.243 92.541,33.829 95.329,35.856C97.459,37.404 100.767,38.237 102.995,36.405C103.797,35.746 104.152,34.534 103.876,33.389C103.638,32.394 102.988,31.71 102.092,31.512C100.493,31.159 99.165,32.767 98.077,34.386C97.979,34.532 97.808,34.612 97.632,34.595C97.457,34.579 97.305,34.466 97.237,34.303C96.146,31.695 96.101,29.518 97.103,27.83C97.952,26.397 99.605,25.385 101.576,25.072C101.541,22.002 102.287,19.756 103.795,18.391C104.718,17.556 106.407,16.639 109.219,17.019C109.366,17.038 109.497,17.126 109.571,17.255C109.646,17.384 109.656,17.541 109.598,17.678C107.655,22.358 108.138,24.115 109.194,27.963C109.289,28.31 109.388,28.673 109.491,29.055C110.509,32.854 110.192,36.111 108.55,38.737C105.903,42.971 100.809,44.002 100.593,44.043C99.564,44.225 98.549,44.309 97.547,44.309ZM69.789,33.5C73.553,33.5 77.831,35.841 81.185,37.677C81.83,38.03 82.439,38.363 82.984,38.646C88.709,41.606 94.349,44.173 100.418,43.1C100.459,43.092 105.322,42.101 107.742,38.222C109.232,35.832 109.51,32.831 108.565,29.303C108.462,28.923 108.364,28.562 108.269,28.216C107.263,24.554 106.691,22.469 108.472,17.906C106.397,17.774 105.143,18.464 104.439,19.102C103.079,20.333 102.441,22.477 102.544,25.475C102.553,25.727 102.366,25.942 102.114,25.968C100.251,26.162 98.686,27.041 97.927,28.319C97.192,29.558 97.151,31.162 97.805,33.098C98.73,31.836 100.295,30.133 102.299,30.576C103.548,30.852 104.486,31.819 104.809,33.165C105.167,34.659 104.684,36.258 103.604,37.146C100.981,39.301 97.184,38.39 94.765,36.631C91.921,34.564 89.094,31.932 86.123,28.585C85.606,28.003 85.09,27.405 84.591,26.827C82.721,24.659 80.786,22.418 78.478,20.637C74.867,17.851 70.599,17.395 67.652,17.502C65.646,17.575 61.618,18.139 58.918,19.777C59.745,21.497 60.492,23.475 60.492,25.001C60.492,25.27 60.437,25.544 60.341,25.815C62.301,24.659 64.643,25.487 65.964,26.923C66.257,27.244 66.558,27.702 66.908,28.232C67.419,29.009 68.001,29.891 68.698,30.562C68.801,30.661 68.854,30.802 68.843,30.944C68.832,31.087 68.758,31.217 68.641,31.3C68.629,31.308 67.387,32.183 65.634,33.484C65.397,33.659 65.146,33.831 64.922,33.983C64.881,34.011 64.837,34.041 64.792,34.073L66.338,34.335C67.401,33.746 68.568,33.5 69.789,33.5ZM56.255,16.925C54.577,18.514 53.32,20.858 52.264,22.96C51.42,24.637 50.82,26.172 50.43,27.652L50.391,27.804C50.101,28.899 49.497,31.176 50.294,32.031C50.402,32.147 50.542,32.251 50.691,32.361C50.833,32.466 50.979,32.574 51.119,32.707C52.764,34.266 51.62,35.62 50.785,36.609C50.296,37.187 49.835,37.733 49.835,38.252C49.835,39.409 51.236,39.815 51.665,39.912C51.871,39.958 52.022,40.134 52.038,40.344C52.062,40.679 52.099,40.926 52.21,41.194C52.306,41.426 52.427,41.637 52.57,41.821C52.859,42.193 53.258,42.473 53.724,42.631C54.06,42.746 54.442,42.804 54.859,42.804C57.947,42.804 60.461,41.295 62.514,39.818C63.74,38.946 65.276,37.393 65.71,36.229C65.827,35.917 65.899,35.59 65.93,35.239L63.771,34.872C63.752,34.868 63.732,34.864 63.713,34.858C63.488,34.79 63.333,34.621 63.3,34.406C63.233,33.974 63.618,33.712 64.383,33.191C64.608,33.037 64.842,32.878 65.063,32.714C66.195,31.873 67.117,31.209 67.635,30.839C67.036,30.171 66.529,29.401 66.107,28.76C65.78,28.264 65.497,27.835 65.257,27.57C64.186,26.406 62.298,25.726 60.765,26.679C60.146,27.065 59.605,27.544 59.031,28.05C58.568,28.46 58.089,28.883 57.564,29.254C57.359,29.399 57.078,29.361 56.919,29.168C56.758,28.975 56.774,28.692 56.955,28.517C57.023,28.45 57.106,28.374 57.197,28.288C57.897,27.63 59.533,26.091 59.533,25.001C59.533,22.474 57.112,18.318 56.255,16.925Z" style="fill:rgb(1,31,91);fill-rule:nonzero;"/>
            <path d="M53.014,40.997C52.56,40.997 52.1,40.969 51.632,40.914C51.369,40.882 51.181,40.644 51.212,40.381C51.244,40.118 51.481,39.929 51.745,39.962C53.929,40.219 57.116,39.927 59.896,37.067C60.08,36.878 60.384,36.874 60.573,37.058C60.763,37.242 60.768,37.546 60.584,37.736C58.496,39.884 55.9,40.997 53.014,40.997Z" style="fill:rgb(1,31,91);fill-rule:nonzero;"/>
            <path d="M91.489,33.8C91.429,33.8 91.368,33.789 91.311,33.763C91.083,33.665 90.979,33.401 91.078,33.173C91.579,32.021 91.648,31.066 91.282,30.338C90.79,29.354 89.635,29.072 89.623,29.069C89.499,29.04 89.391,28.958 89.331,28.845C89.27,28.732 89.259,28.598 89.304,28.478C89.471,28.027 89.85,26.713 89.61,26.053C89.404,25.488 88.341,25.252 87.985,25.214C87.844,25.2 87.718,25.119 87.647,24.997C87.574,24.875 87.564,24.726 87.618,24.595C87.768,24.237 88.075,23.183 87.71,22.617C87.002,21.518 85.141,22.05 85.122,22.056C84.962,22.103 84.789,22.058 84.673,21.938C84.557,21.818 84.517,21.643 84.57,21.484C84.575,21.469 85.108,19.787 84.062,18.717C82.837,17.467 80.215,18.202 80.189,18.21C80.029,18.255 79.857,18.21 79.743,18.09C79.627,17.971 79.587,17.798 79.639,17.641C79.657,17.583 80.088,16.19 79.15,15.595C77.659,14.651 75.951,15.86 75.934,15.872C75.805,15.965 75.636,15.983 75.491,15.92C75.346,15.855 75.245,15.719 75.227,15.561C75.217,15.484 74.974,13.659 73.369,13.443C71.633,13.212 69.795,14.997 69.777,15.015C69.686,15.106 69.559,15.152 69.431,15.143C69.302,15.134 69.184,15.07 69.106,14.968C69.094,14.953 67.87,13.371 66.33,13.45C64.842,13.517 64.26,15.023 64.254,15.038C64.201,15.18 64.08,15.285 63.931,15.317C63.783,15.35 63.628,15.306 63.521,15.2C63.507,15.186 62.037,13.781 60.526,14.335C58.627,15.032 58.089,17.355 57.912,18.118L57.906,18.145C57.85,18.386 57.609,18.536 57.368,18.48C57.127,18.424 56.977,18.183 57.033,17.942L57.039,17.916C57.243,17.036 57.863,14.358 60.218,13.494C61.677,12.959 63.015,13.691 63.69,14.182C64.072,13.56 64.88,12.618 66.29,12.554C67.773,12.484 68.96,13.497 69.501,14.061C70.196,13.48 71.815,12.329 73.488,12.555C74.95,12.752 75.683,13.902 75.974,14.816C76.755,14.43 78.226,13.949 79.63,14.839C80.602,15.455 80.697,16.499 80.63,17.199C81.648,17.027 83.548,16.911 84.702,18.09C85.642,19.05 85.671,20.294 85.571,21.062C86.397,20.964 87.742,21.01 88.464,22.131C88.933,22.859 88.785,23.827 88.622,24.421C89.23,24.568 90.153,24.925 90.452,25.747C90.744,26.547 90.478,27.714 90.289,28.351C90.804,28.562 91.621,29.023 92.079,29.926C92.574,30.904 92.514,32.117 91.9,33.531C91.827,33.7 91.662,33.8 91.489,33.8Z" style="fill:rgb(1,31,91);fill-rule:nonzero;"/>
            <path d="M89.251,39.987C89.233,39.987 89.215,39.986 89.196,39.984C88.951,39.954 88.776,39.73 88.806,39.485C89.016,37.77 88.007,37.458 87.117,37.182C86.881,37.109 86.677,37.046 86.516,36.953C86.042,36.678 86.023,36.107 86.004,35.502C85.983,34.863 85.96,34.139 85.476,33.598C84.644,32.667 82.992,33.27 82.975,33.275C82.826,33.331 82.658,33.303 82.535,33.203C82.411,33.102 82.351,32.943 82.376,32.786C82.378,32.769 82.64,30.958 81.598,30.072C80.711,29.32 79.037,29.502 78.467,29.636C78.327,29.668 78.182,29.633 78.073,29.54C77.964,29.447 77.907,29.309 77.918,29.167C78,28.044 77.552,27.08 76.689,26.521C75.96,26.048 75.077,25.984 74.388,26.356C72.505,27.369 71.768,27.438 69.795,26.042C69.18,25.606 68.564,25.461 67.968,25.613C67.213,25.805 66.519,26.477 66.013,27.506C65.904,27.728 65.635,27.819 65.413,27.711C65.191,27.602 65.1,27.333 65.209,27.111C65.833,25.842 66.733,25.002 67.747,24.744C68.597,24.527 69.485,24.724 70.314,25.31C71.974,26.486 72.354,26.433 73.964,25.567C74.941,25.04 76.172,25.118 77.177,25.769C78.156,26.403 78.746,27.462 78.815,28.67C79.631,28.571 81.163,28.527 82.178,29.389C83.142,30.208 83.305,31.489 83.304,32.265C84.059,32.121 85.311,32.068 86.144,33C86.845,33.785 86.877,34.76 86.899,35.473C86.907,35.718 86.919,36.086 86.977,36.184C87.057,36.225 87.222,36.276 87.382,36.326C88.231,36.588 89.996,37.135 89.695,39.593C89.668,39.82 89.475,39.987 89.251,39.987Z" style="fill:rgb(1,31,91);fill-rule:nonzero;"/>
            <path d="M44.709,33.522C44.336,33.231 44.126,33.052 44.126,32.754L44.126,23.54C44.126,23.242 44.336,23.063 44.709,22.772C44.949,22.584 45.22,22.372 45.417,22.08C45.634,21.759 45.743,21.384 45.734,20.996C45.743,20.607 45.634,20.232 45.417,19.911C45.22,19.619 44.949,19.407 44.709,19.22C44.336,18.929 44.126,18.75 44.126,18.452L44.126,15.238L43.396,15.238C41.688,15.237 39.856,15.218 38.668,14.71C38.204,14.511 37.765,14.235 37.301,13.943C36.244,13.279 35.047,12.526 33.227,12.526C31.779,12.526 30.46,13.057 29.294,13.526C28.514,13.84 27.777,14.137 27.267,14.137L27.042,14.137C26.532,14.137 25.795,13.84 25.014,13.526C23.85,13.057 22.53,12.526 21.082,12.526C19.262,12.526 18.065,13.279 17.008,13.943C16.544,14.235 16.106,14.511 15.641,14.71C14.453,15.218 12.622,15.237 10.914,15.238L10.184,15.238L10.184,18.452C10.184,18.75 9.973,18.929 9.601,19.22C9.361,19.407 9.089,19.619 8.892,19.911C8.676,20.232 8.566,20.607 8.575,20.996C8.566,21.384 8.676,21.759 8.892,22.08C9.089,22.372 9.361,22.584 9.6,22.772C9.973,23.063 10.184,23.242 10.184,23.54L10.184,32.754C10.184,33.052 9.973,33.231 9.601,33.522C9.361,33.709 9.089,33.921 8.892,34.213C8.676,34.534 8.566,34.908 8.575,35.297C8.566,35.686 8.676,36.061 8.892,36.382C9.089,36.674 9.361,36.886 9.6,37.073C9.973,37.364 10.184,37.544 10.184,37.842L10.184,40.927L10.16,40.968L10.184,40.968L10.184,40.97L27.154,40.969L44.126,40.97L44.126,40.968L44.149,40.968L44.126,40.927L44.126,37.842C44.126,37.544 44.336,37.364 44.709,37.073C44.949,36.886 45.22,36.674 45.417,36.382C45.634,36.061 45.743,35.686 45.734,35.297C45.743,34.908 45.634,34.534 45.417,34.213C45.22,33.921 44.949,33.709 44.709,33.522ZM29.696,14.523C30.771,14.091 31.987,13.601 33.227,13.601C34.737,13.601 35.705,14.209 36.729,14.854C37.208,15.155 37.704,15.467 38.246,15.698C38.688,15.887 39.164,16.018 39.666,16.109L39.666,35.671C38.865,35.548 37.991,35.546 37.073,35.543C35.668,35.538 34.214,35.533 32.816,35.109C32.339,34.965 31.86,34.812 31.39,34.662C29.939,34.199 28.673,33.795 27.779,33.713C27.762,33.711 27.742,33.709 27.723,33.707L27.723,15.171C28.319,15.075 28.968,14.817 29.696,14.523ZM16.063,15.698C16.606,15.467 17.101,15.155 17.581,14.854C18.605,14.209 19.572,13.601 21.082,13.601C22.321,13.601 23.539,14.091 24.613,14.523C25.367,14.827 26.036,15.093 26.648,15.18L26.648,33.7C26.61,33.704 26.572,33.708 26.54,33.713C25.646,33.795 24.379,34.199 22.928,34.662C22.459,34.812 21.98,34.965 21.503,35.109C20.104,35.533 18.651,35.538 17.246,35.543C16.327,35.546 15.454,35.548 14.653,35.671L14.653,16.107C15.151,16.016 15.624,15.885 16.063,15.698ZM44.794,35.312C44.8,35.51 44.748,35.694 44.638,35.857C44.524,36.025 44.333,36.174 44.13,36.333C43.71,36.662 43.185,37.07 43.185,37.842L43.185,39.894L11.124,39.894L11.124,37.842C11.124,37.07 10.6,36.662 10.179,36.333C9.976,36.174 9.785,36.025 9.671,35.857C9.562,35.694 9.508,35.51 9.515,35.312L9.515,35.283C9.508,35.085 9.562,34.901 9.671,34.739C9.785,34.57 9.976,34.421 10.179,34.263C10.6,33.934 11.124,33.525 11.124,32.754L11.124,23.54C11.124,22.769 10.6,22.359 10.179,22.031C9.976,21.872 9.785,21.723 9.671,21.555C9.562,21.392 9.508,21.209 9.515,21.009L9.515,20.982C9.508,20.783 9.562,20.599 9.671,20.437C9.785,20.269 9.976,20.119 10.179,19.961C10.6,19.632 11.124,19.223 11.124,18.452L11.124,16.314L11.192,16.314C12.026,16.314 12.837,16.307 13.605,16.242L13.605,37.42L25.274,37.42C25.495,38.255 26.255,38.873 27.159,38.873C28.063,38.873 28.823,38.255 29.044,37.42L40.714,37.42L40.714,16.243C41.479,16.307 42.286,16.314 43.117,16.314L43.185,16.314L43.185,18.452C43.185,19.223 43.71,19.632 44.13,19.961C44.333,20.119 44.524,20.269 44.638,20.437C44.748,20.599 44.8,20.783 44.794,20.982L44.794,21.009C44.8,21.209 44.748,21.392 44.638,21.555C44.524,21.723 44.333,21.872 44.13,22.031C43.71,22.359 43.185,22.769 43.185,23.54L43.185,32.754C43.185,33.525 43.71,33.934 44.13,34.263C44.333,34.421 44.524,34.57 44.638,34.739C44.748,34.901 44.8,35.085 44.794,35.283L44.794,35.312Z" style="fill:rgb(1,31,91);fill-rule:nonzero;"/>
            <path d="M149.349,33.522C148.978,33.231 148.766,33.052 148.766,32.754L148.766,23.54C148.766,23.242 148.978,23.063 149.349,22.772C149.589,22.584 149.861,22.372 150.058,22.08C150.274,21.759 150.384,21.384 150.375,20.996C150.384,20.607 150.274,20.232 150.058,19.911C149.861,19.619 149.589,19.407 149.349,19.22C148.978,18.929 148.766,18.75 148.766,18.452L148.766,15.238L148.037,15.238C146.328,15.237 144.498,15.218 143.309,14.71C142.844,14.511 142.406,14.235 141.942,13.943C140.885,13.279 139.688,12.526 137.867,12.526C136.42,12.526 135.1,13.057 133.936,13.526C133.154,13.84 132.417,14.137 131.908,14.137L131.683,14.137C131.172,14.137 130.436,13.84 129.656,13.526C128.49,13.057 127.17,12.526 125.723,12.526C123.902,12.526 122.706,13.279 121.649,13.943C121.185,14.235 120.747,14.511 120.282,14.71C119.093,15.218 117.262,15.237 115.554,15.238L114.825,15.238L114.825,18.452C114.825,18.75 114.614,18.929 114.242,19.22C114.001,19.407 113.729,19.619 113.533,19.911C113.316,20.232 113.207,20.607 113.215,20.996C113.207,21.384 113.316,21.759 113.533,22.08C113.729,22.372 114.001,22.584 114.242,22.772C114.614,23.063 114.825,23.242 114.825,23.54L114.825,32.754C114.825,33.052 114.614,33.231 114.242,33.522C114.001,33.709 113.729,33.921 113.533,34.213C113.316,34.534 113.207,34.908 113.215,35.297C113.207,35.686 113.316,36.061 113.533,36.382C113.729,36.674 114.001,36.886 114.242,37.073C114.614,37.364 114.825,37.544 114.825,37.842L114.825,40.927L114.801,40.968L114.825,40.968L114.825,40.97L131.795,40.969L148.766,40.97L148.766,40.968L148.791,40.968L148.766,40.927L148.766,37.842C148.766,37.544 148.978,37.364 149.349,37.073C149.589,36.886 149.861,36.674 150.058,36.382C150.274,36.061 150.384,35.686 150.375,35.297C150.384,34.908 150.274,34.534 150.058,34.213C149.861,33.921 149.589,33.709 149.349,33.522ZM134.337,14.523C135.411,14.091 136.629,13.601 137.867,13.601C139.378,13.601 140.345,14.209 141.369,14.854C141.848,15.155 142.345,15.467 142.887,15.698C143.329,15.887 143.804,16.018 144.307,16.109L144.307,35.671C143.506,35.548 142.632,35.546 141.714,35.543C140.309,35.538 138.855,35.533 137.456,35.109C136.979,34.965 136.5,34.812 136.031,34.662C134.58,34.199 133.314,33.795 132.419,33.713C132.402,33.711 132.382,33.709 132.364,33.707L132.364,15.171C132.96,15.075 133.609,14.817 134.337,14.523ZM120.705,15.698C121.246,15.467 121.742,15.155 122.222,14.854C123.245,14.209 124.212,13.601 125.723,13.601C126.962,13.601 128.179,14.091 129.253,14.523C130.007,14.827 130.675,15.093 131.289,15.18L131.289,33.7C131.251,33.704 131.213,33.708 131.18,33.713C130.285,33.795 129.021,34.199 127.569,34.662C127.1,34.812 126.619,34.965 126.143,35.109C124.745,35.533 123.292,35.538 121.886,35.543C120.968,35.546 120.094,35.548 119.293,35.671L119.293,16.107C119.792,16.016 120.265,15.885 120.705,15.698ZM149.435,35.312C149.442,35.51 149.389,35.694 149.278,35.857C149.166,36.025 148.973,36.174 148.771,36.333C148.35,36.662 147.827,37.07 147.827,37.842L147.827,39.894L115.765,39.894L115.765,37.842C115.765,37.07 115.241,36.662 114.82,36.333C114.618,36.174 114.426,36.025 114.312,35.857C114.203,35.694 114.149,35.51 114.155,35.312L114.156,35.297L114.155,35.283C114.149,35.085 114.203,34.901 114.312,34.739C114.426,34.57 114.618,34.421 114.82,34.263C115.241,33.934 115.765,33.525 115.765,32.754L115.765,23.54C115.765,22.769 115.241,22.359 114.82,22.031C114.618,21.872 114.426,21.723 114.312,21.555C114.203,21.392 114.149,21.209 114.155,21.009L114.156,20.996L114.155,20.982C114.149,20.783 114.203,20.599 114.312,20.437C114.426,20.269 114.618,20.119 114.82,19.961C115.241,19.632 115.765,19.223 115.765,18.452L115.765,16.314L115.833,16.314C116.667,16.314 117.478,16.307 118.245,16.242L118.245,37.42L129.914,37.42C130.136,38.255 130.896,38.873 131.799,38.873C132.703,38.873 133.464,38.255 133.685,37.42L145.355,37.42L145.355,16.243C146.119,16.307 146.927,16.314 147.758,16.314L147.827,16.314L147.827,18.452C147.827,19.223 148.35,19.632 148.771,19.961C148.973,20.119 149.166,20.269 149.278,20.437C149.389,20.599 149.442,20.783 149.435,20.982L149.435,21.009C149.442,21.209 149.389,21.392 149.278,21.555C149.166,21.723 148.973,21.872 148.771,22.031C148.35,22.359 147.827,22.769 147.827,23.54L147.827,32.754C147.827,33.525 148.35,33.934 148.771,34.263C148.973,34.421 149.166,34.57 149.278,34.739C149.389,34.901 149.442,35.085 149.435,35.283L149.435,35.312Z" style="fill:rgb(1,31,91);fill-rule:nonzero;"/>
            <path d="M155.932,3.606L3.019,3.606C3.019,3.606 3.022,78.828 3.02,79.83C2.917,113.228 21.504,137.49 37.115,151.962C54.133,167.742 73.299,177.137 79.32,178.448L79.475,178.482L79.63,178.448C85.651,177.137 104.818,167.742 121.836,151.962C137.446,137.49 156.033,113.228 155.932,79.83C155.929,78.828 155.932,3.606 155.932,3.606ZM153.809,5.728C153.809,10.598 153.808,31.262 153.808,49.538L5.143,49.538C5.142,31.262 5.142,10.598 5.141,5.728L153.809,5.728ZM34.64,123.844C29.526,118.73 29.526,110.438 34.64,105.322C39.755,100.209 48.047,100.209 53.162,105.322C58.276,110.438 58.276,118.73 53.162,123.844C48.047,128.959 39.755,128.959 34.64,123.844ZM120.393,150.407C102.71,166.802 84.383,175.064 79.475,176.303C74.567,175.064 56.24,166.802 38.557,150.407C38.127,150.008 37.694,149.601 37.26,149.187L79.475,104.367L121.69,149.187C121.256,149.601 120.823,150.008 120.393,150.407ZM66.381,82.094C66.381,74.862 72.244,69.001 79.475,69.001C86.707,69.001 92.569,74.862 92.569,82.094C92.569,89.326 86.707,95.188 79.475,95.188C72.244,95.188 66.381,89.326 66.381,82.094ZM124.311,123.844C119.196,128.959 110.904,128.959 105.789,123.844C100.675,118.73 100.675,110.438 105.789,105.322C110.904,100.209 119.196,100.209 124.311,105.322C129.425,110.438 129.425,118.73 124.311,123.844ZM145.338,117.217L79.475,53.695L13.613,117.217C8.5,106.462 5.099,93.984 5.142,79.836C5.143,79.42 5.143,66.599 5.143,51.661L153.808,51.661C153.808,66.599 153.808,79.42 153.809,79.836C153.852,93.984 150.45,106.462 145.338,117.217Z" style="fill:rgb(1,31,91);fill-rule:nonzero;"/>
        </g>
    </g>
</svg>
